<svg width="960" height="720" viewBox="0 0 960 720" fill="none" xmlns="http://www.w3.org/2000/svg">
  <defs>
    <linearGradient id="outsourcebg" x1="128" y1="60" x2="812" y2="650" gradientUnits="userSpaceOnUse">
      <stop stop-color="#F8FAFC"/>
      <stop offset="1" stop-color="#ECFEFF"/>
    </linearGradient>
    <filter id="outsourceshadow" x="118" y="80" width="724" height="562" filterUnits="userSpaceOnUse" color-interpolation-filters="sRGB">
      <feFlood flood-opacity="0" result="BackgroundImageFix"/>
      <feColorMatrix in="SourceAlpha" type="matrix" values="0 0 0 0 0 0 0 0 0 0 0 0 0 0 0 0 0 0 127 0" result="hardAlpha"/>
      <feOffset dy="18"/>
      <feGaussianBlur stdDeviation="28"/>
      <feColorMatrix type="matrix" values="0 0 0 0 0.0588235 0 0 0 0 0.0941176 0 0 0 0 0.164706 0 0 0 0.12 0"/>
      <feBlend mode="normal" in2="BackgroundImageFix" result="effect1_dropShadow_1_5"/>
      <feBlend mode="normal" in="SourceGraphic" in2="effect1_dropShadow_1_5" result="shape"/>
    </filter>
  </defs>
  <rect width="960" height="720" rx="44" fill="url(#outsourcebg)"/>
  <circle cx="180" cy="132" r="76" fill="#DBEAFE"/>
  <circle cx="804" cy="578" r="108" fill="#D1FAE5"/>
  <g filter="url(#outsourceshadow)">
    <rect x="174" y="120" width="612" height="404" rx="32" fill="#FFFFFF"/>
    <rect x="214" y="156" width="176" height="332" rx="28" fill="#0F172A"/>
    <rect x="244" y="190" width="90" height="12" rx="6" fill="rgba(255,255,255,0.52)"/>
    <rect x="244" y="220" width="122" height="24" rx="12" fill="#38BDF8"/>
    <rect x="244" y="278" width="126" height="12" rx="6" fill="rgba(255,255,255,0.18)"/>
    <rect x="244" y="308" width="114" height="12" rx="6" fill="rgba(255,255,255,0.18)"/>
    <rect x="244" y="338" width="96" height="12" rx="6" fill="rgba(255,255,255,0.18)"/>
    <rect x="244" y="386" width="122" height="46" rx="16" fill="rgba(255,255,255,0.1)"/>
    <rect x="432" y="176" width="146" height="72" rx="22" fill="#ECFEFF"/>
    <rect x="452" y="203" width="104" height="14" rx="7" fill="#0F172A"/>
    <rect x="610" y="176" width="142" height="72" rx="22" fill="#EFF6FF"/>
    <rect x="630" y="203" width="102" height="14" rx="7" fill="#0F172A"/>
    <rect x="432" y="292" width="146" height="72" rx="22" fill="#FEF3C7"/>
    <rect x="452" y="319" width="92" height="14" rx="7" fill="#0F172A"/>
    <rect x="610" y="292" width="142" height="72" rx="22" fill="#DCFCE7"/>
    <rect x="630" y="319" width="88" height="14" rx="7" fill="#0F172A"/>
    <path d="M396 230H430" stroke="#0EA5E9" stroke-width="10" stroke-linecap="round"/>
    <path d="M570 230H610" stroke="#0EA5E9" stroke-width="10" stroke-linecap="round"/>
    <path d="M506 248V282" stroke="#0EA5E9" stroke-width="10" stroke-linecap="round"/>
    <path d="M682 248V282" stroke="#0EA5E9" stroke-width="10" stroke-linecap="round"/>
    <path d="M504 364V394H610V402" stroke="#0EA5E9" stroke-width="10" stroke-linecap="round" stroke-linejoin="round"/>
    <path d="M682 364V394H610V402" stroke="#0EA5E9" stroke-width="10" stroke-linecap="round" stroke-linejoin="round"/>
    <rect x="510" y="402" width="156" height="70" rx="24" fill="#0F172A"/>
    <rect x="542" y="428" width="92" height="14" rx="7" fill="rgba(255,255,255,0.82)"/>
  </g>
  <rect x="124" y="562" width="218" height="108" rx="28" fill="#FFFFFF" opacity="0.95"/>
  <rect x="150" y="594" width="88" height="14" rx="7" fill="#0F172A"/>
  <rect x="150" y="620" width="168" height="10" rx="5" fill="#94A3B8"/>
  <rect x="150" y="642" width="120" height="10" rx="5" fill="#94A3B8"/>
  <rect x="672" y="72" width="170" height="134" rx="28" fill="#FFFFFF" opacity="0.95"/>
  <rect x="698" y="102" width="82" height="12" rx="6" fill="#0F172A"/>
  <rect x="698" y="130" width="118" height="10" rx="5" fill="#94A3B8"/>
  <rect x="698" y="158" width="64" height="34" rx="12" fill="#38BDF8"/>
</svg>
